<?xml version="1.0" encoding="UTF-8"?>
<svg xmlns="http://www.w3.org/2000/svg" width="1500" height="440" viewBox="0 0 1500 440" role="img" aria-label="Image pipeline: EC2 Image Builder patches, installs, tests and publishes a Graviton AMI."><title>Image pipeline: EC2 Image Builder patches, installs, tests and publishes a Graviton AMI.</title><defs><marker id="mF39A3C" viewBox="0 0 10 10" refX="8.5" refY="5" markerWidth="7" markerHeight="7" orient="auto-start-reverse"><path d="M0,0 L10,5 L0,10 z" fill="#F39A3C"/></marker></defs><rect width="1500" height="440" rx="16" fill="#0D1117"/><rect x="24" y="24" width="1452" height="392" rx="14" fill="#26180A" stroke="#F39A3C" stroke-width="1.6"/>
<text x="48" y="62" font-family="-apple-system, BlinkMacSystemFont, 'Segoe UI', Helvetica, Arial, sans-serif" font-size="24" font-weight="700" fill="#FFC891" text-anchor="start">java-ami · app AMI</text>
<text x="48" y="88" font-family="-apple-system, BlinkMacSystemFont, 'Segoe UI', Helvetica, Arial, sans-serif" font-size="15" font-weight="400" fill="#FFC891" text-anchor="start">EC2 Image Builder bakes a patched, fully immutable image with the application release inside</text>
<rect x="48" y="112" width="250" height="64" rx="10" fill="#161B22" stroke="#30363D" stroke-width="1.2"/>
<rect x="60" y="124.0" width="40" height="40" rx="8.0" fill="#ED7100"/><g transform="translate(68.0,132.0) scale(1.0)" fill="none" stroke="#FFFFFF" stroke-width="1.8" stroke-linecap="round" stroke-linejoin="round"><path d="M12 4l8.5 4-8.5 4-8.5-4z"/><path d="M3.5 12l8.5 4 8.5-4"/><path d="M3.5 16l8.5 4 8.5-4"/></g>
<text x="112" y="141.0" font-family="-apple-system, BlinkMacSystemFont, 'Segoe UI', Helvetica, Arial, sans-serif" font-size="15" font-weight="600" fill="#E6EDF3" text-anchor="start">Parent image</text>
<text x="112" y="160.0" font-family="-apple-system, BlinkMacSystemFont, 'Segoe UI', Helvetica, Arial, sans-serif" font-size="12.5" font-weight="400" fill="#9AA7B4" text-anchor="start">AL2023 arm64 · latest</text>
<polyline points="301,144 325,144" fill="none" stroke="#F39A3C" stroke-width="2" stroke-linecap="round" stroke-linejoin="round" marker-end="url(#mF39A3C)"/>
<rect x="328" y="112" width="250" height="64" rx="10" fill="#161B22" stroke="#30363D" stroke-width="1.2"/>
<rect x="340" y="124.0" width="40" height="40" rx="8.0" fill="#ED7100"/><g transform="translate(348.0,132.0) scale(1.0)" fill="none" stroke="#FFFFFF" stroke-width="1.8" stroke-linecap="round" stroke-linejoin="round"><circle cx="12" cy="12" r="3"/><path d="M12 3v3M12 18v3M3 12h3M18 12h3M5.6 5.6l2.1 2.1M16.3 16.3l2.1 2.1M5.6 18.4l2.1-2.1M16.3 7.7l2.1-2.1"/><circle cx="12" cy="12" r="6.2"/></g>
<text x="392" y="141.0" font-family="-apple-system, BlinkMacSystemFont, 'Segoe UI', Helvetica, Arial, sans-serif" font-size="15" font-weight="600" fill="#E6EDF3" text-anchor="start">Build</text>
<text x="392" y="160.0" font-family="-apple-system, BlinkMacSystemFont, 'Segoe UI', Helvetica, Arial, sans-serif" font-size="12.5" font-weight="400" fill="#9AA7B4" text-anchor="start">patch, runtime, release</text>
<polyline points="581,144 605,144" fill="none" stroke="#F39A3C" stroke-width="2" stroke-linecap="round" stroke-linejoin="round" marker-end="url(#mF39A3C)"/>
<rect x="608" y="112" width="250" height="64" rx="10" fill="#161B22" stroke="#30363D" stroke-width="1.2"/>
<rect x="620" y="124.0" width="40" height="40" rx="8.0" fill="#ED7100"/><g transform="translate(628.0,132.0) scale(1.0)" fill="none" stroke="#FFFFFF" stroke-width="1.8" stroke-linecap="round" stroke-linejoin="round"><circle cx="12" cy="12" r="8.5"/><path d="M8 12.2l2.8 2.8L16.2 9.5"/></g>
<text x="672" y="141.0" font-family="-apple-system, BlinkMacSystemFont, 'Segoe UI', Helvetica, Arial, sans-serif" font-size="15" font-weight="600" fill="#E6EDF3" text-anchor="start">Validate + test</text>
<text x="672" y="160.0" font-family="-apple-system, BlinkMacSystemFont, 'Segoe UI', Helvetica, Arial, sans-serif" font-size="12.5" font-weight="400" fill="#9AA7B4" text-anchor="start">fresh instance, reboot</text>
<polyline points="861,144 885,144" fill="none" stroke="#F39A3C" stroke-width="2" stroke-linecap="round" stroke-linejoin="round" marker-end="url(#mF39A3C)"/>
<rect x="888" y="112" width="250" height="64" rx="10" fill="#161B22" stroke="#30363D" stroke-width="1.2"/>
<rect x="900" y="124.0" width="40" height="40" rx="8.0" fill="#ED7100"/><g transform="translate(908.0,132.0) scale(1.0)" fill="none" stroke="#FFFFFF" stroke-width="1.8" stroke-linecap="round" stroke-linejoin="round"><rect x="3.5" y="5" width="17" height="14" rx="2"/><path d="M8 9v6M12 9v6M16 9v6"/></g>
<text x="952" y="141.0" font-family="-apple-system, BlinkMacSystemFont, 'Segoe UI', Helvetica, Arial, sans-serif" font-size="15" font-weight="600" fill="#E6EDF3" text-anchor="start">Encrypted AMI</text>
<text x="952" y="160.0" font-family="-apple-system, BlinkMacSystemFont, 'Segoe UI', Helvetica, Arial, sans-serif" font-size="12.5" font-weight="400" fill="#9AA7B4" text-anchor="start">java-app-&lt;version&gt;-arm64</text>
<polyline points="1141,144 1165,144" fill="none" stroke="#F39A3C" stroke-width="2" stroke-linecap="round" stroke-linejoin="round" marker-end="url(#mF39A3C)"/>
<rect x="1168" y="112" width="250" height="64" rx="10" fill="#161B22" stroke="#30363D" stroke-width="1.2"/>
<rect x="1180" y="124.0" width="40" height="40" rx="8.0" fill="#E7157B"/><g transform="translate(1188.0,132.0) scale(1.0)" fill="none" stroke="#FFFFFF" stroke-width="1.8" stroke-linecap="round" stroke-linejoin="round"><circle cx="12" cy="12" r="3"/><path d="M12 3v3M12 18v3M3 12h3M18 12h3M5.6 5.6l2.1 2.1M16.3 16.3l2.1 2.1M5.6 18.4l2.1-2.1M16.3 7.7l2.1-2.1"/><circle cx="12" cy="12" r="6.2"/></g>
<text x="1232" y="141.0" font-family="-apple-system, BlinkMacSystemFont, 'Segoe UI', Helvetica, Arial, sans-serif" font-size="15" font-weight="600" fill="#E6EDF3" text-anchor="start">SSM parameter</text>
<text x="1232" y="160.0" font-family="-apple-system, BlinkMacSystemFont, 'Segoe UI', Helvetica, Arial, sans-serif" font-size="12.5" font-weight="400" fill="#9AA7B4" text-anchor="start">/imagebuilder/java-platform/…</text>
<rect x="48" y="204" width="680" height="100" rx="10" fill="#161B22" stroke="#30363D" stroke-width="1.3"/>
<text x="64" y="234" font-family="-apple-system, BlinkMacSystemFont, 'Segoe UI', Helvetica, Arial, sans-serif" font-size="15" font-weight="700" fill="#E6EDF3" text-anchor="start">Installed in the image</text>
<rect x="64" y="240" width="210" height="52" rx="8" fill="#161B22" stroke="#F39A3C" stroke-opacity="0.55" stroke-width="1.1"/>
<g transform="translate(79.6,257.6) scale(0.7)" fill="none" stroke="#ED7100" stroke-width="1.9" stroke-linecap="round" stroke-linejoin="round"><path d="M6 3h8l4 4v14H6z"/><path d="M14 3v4h4"/><path d="M9.5 12.5L8 14l1.5 1.5M14.5 12.5L16 14l-1.5 1.5"/></g>
<text x="110" y="264" font-family="-apple-system, BlinkMacSystemFont, 'Segoe UI', Helvetica, Arial, sans-serif" font-size="13.5" font-weight="600" fill="#E6EDF3" text-anchor="start">Corretto 21 + agents</text>
<text x="110" y="281" font-family="-apple-system, BlinkMacSystemFont, 'Segoe UI', Helvetica, Arial, sans-serif" font-size="11.5" font-weight="400" fill="#9AA7B4" text-anchor="start">CloudWatch, efs-utils</text>
<rect x="284" y="240" width="210" height="52" rx="8" fill="#161B22" stroke="#F39A3C" stroke-opacity="0.55" stroke-width="1.1"/>
<g transform="translate(299.6,257.6) scale(0.7)" fill="none" stroke="#ED7100" stroke-width="1.9" stroke-linecap="round" stroke-linejoin="round"><path d="M12 3l8 4.5v9L12 21l-8-4.5v-9z"/><path d="M4 7.5l8 4.5 8-4.5M12 12v9"/></g>
<text x="330" y="264" font-family="-apple-system, BlinkMacSystemFont, 'Segoe UI', Helvetica, Arial, sans-serif" font-size="13.5" font-weight="600" fill="#E6EDF3" text-anchor="start">Release JAR</text>
<text x="330" y="281" font-family="-apple-system, BlinkMacSystemFont, 'Segoe UI', Helvetica, Arial, sans-serif" font-size="11.5" font-weight="400" fill="#9AA7B4" text-anchor="start">checksum-verified</text>
<rect x="504" y="240" width="210" height="52" rx="8" fill="#161B22" stroke="#F39A3C" stroke-opacity="0.55" stroke-width="1.1"/>
<g transform="translate(519.6,257.6) scale(0.7)" fill="none" stroke="#ED7100" stroke-width="1.9" stroke-linecap="round" stroke-linejoin="round"><circle cx="12" cy="12" r="3"/><path d="M12 3v3M12 18v3M3 12h3M18 12h3M5.6 5.6l2.1 2.1M16.3 16.3l2.1 2.1M5.6 18.4l2.1-2.1M16.3 7.7l2.1-2.1"/><circle cx="12" cy="12" r="6.2"/></g>
<text x="550" y="264" font-family="-apple-system, BlinkMacSystemFont, 'Segoe UI', Helvetica, Arial, sans-serif" font-size="13.5" font-weight="600" fill="#E6EDF3" text-anchor="start">systemd units</text>
<text x="550" y="281" font-family="-apple-system, BlinkMacSystemFont, 'Segoe UI', Helvetica, Arial, sans-serif" font-size="11.5" font-weight="400" fill="#9AA7B4" text-anchor="start">configure + app</text>
<rect x="752" y="204" width="700" height="100" rx="10" fill="#161B22" stroke="#30363D" stroke-width="1.3"/>
<text x="768" y="234" font-family="-apple-system, BlinkMacSystemFont, 'Segoe UI', Helvetica, Arial, sans-serif" font-size="15" font-weight="700" fill="#E6EDF3" text-anchor="start">Versions</text>
<rect x="768" y="240" width="214" height="52" rx="8" fill="#161B22" stroke="#F39A3C" stroke-opacity="0.55" stroke-width="1.1"/>
<g transform="translate(783.6,257.6) scale(0.7)" fill="none" stroke="#ED7100" stroke-width="1.9" stroke-linecap="round" stroke-linejoin="round"><path d="M8 4c-2 0-3 1-3 3v2.5c0 1.2-.8 2-2 2.5 1.2.5 2 1.3 2 2.5V17c0 2 1 3 3 3M16 4c2 0 3 1 3 3v2.5c0 1.2.8 2 2 2.5-1.2.5-2 1.3-2 2.5V17c0 2-1 3-3 3"/></g>
<text x="814" y="264" font-family="-apple-system, BlinkMacSystemFont, 'Segoe UI', Helvetica, Arial, sans-serif" font-size="13.5" font-weight="600" fill="#E6EDF3" text-anchor="start">app_version 0.1.0</text>
<text x="814" y="281" font-family="-apple-system, BlinkMacSystemFont, 'Segoe UI', Helvetica, Arial, sans-serif" font-size="11.5" font-weight="400" fill="#9AA7B4" text-anchor="start">release baked in</text>
<rect x="994" y="240" width="214" height="52" rx="8" fill="#161B22" stroke="#F39A3C" stroke-opacity="0.55" stroke-width="1.1"/>
<g transform="translate(1009.6,257.6) scale(0.7)" fill="none" stroke="#ED7100" stroke-width="1.9" stroke-linecap="round" stroke-linejoin="round"><path d="M8 4c-2 0-3 1-3 3v2.5c0 1.2-.8 2-2 2.5 1.2.5 2 1.3 2 2.5V17c0 2 1 3 3 3M16 4c2 0 3 1 3 3v2.5c0 1.2.8 2 2 2.5-1.2.5-2 1.3-2 2.5V17c0 2-1 3-3 3"/></g>
<text x="1040" y="264" font-family="-apple-system, BlinkMacSystemFont, 'Segoe UI', Helvetica, Arial, sans-serif" font-size="13.5" font-weight="600" fill="#E6EDF3" text-anchor="start">recipe 1.0.0</text>
<text x="1040" y="281" font-family="-apple-system, BlinkMacSystemFont, 'Segoe UI', Helvetica, Arial, sans-serif" font-size="11.5" font-weight="400" fill="#9AA7B4" text-anchor="start">bump every release</text>
<rect x="1220" y="240" width="214" height="52" rx="8" fill="#161B22" stroke="#F39A3C" stroke-opacity="0.55" stroke-width="1.1"/>
<g transform="translate(1235.6,257.6) scale(0.7)" fill="none" stroke="#ED7100" stroke-width="1.9" stroke-linecap="round" stroke-linejoin="round"><path d="M8 4c-2 0-3 1-3 3v2.5c0 1.2-.8 2-2 2.5 1.2.5 2 1.3 2 2.5V17c0 2 1 3 3 3M16 4c2 0 3 1 3 3v2.5c0 1.2.8 2 2 2.5-1.2.5-2 1.3-2 2.5V17c0 2-1 3-3 3"/></g>
<text x="1266" y="264" font-family="-apple-system, BlinkMacSystemFont, 'Segoe UI', Helvetica, Arial, sans-serif" font-size="13.5" font-weight="600" fill="#E6EDF3" text-anchor="start">build /1, /2 …</text>
<text x="1266" y="281" font-family="-apple-system, BlinkMacSystemFont, 'Segoe UI', Helvetica, Arial, sans-serif" font-size="11.5" font-weight="400" fill="#9AA7B4" text-anchor="start">added per run</text>
<rect x="48" y="326" width="326" height="64" rx="10" fill="#161B22" stroke="#30363D" stroke-width="1.2"/>
<rect x="60" y="338.0" width="40" height="40" rx="8.0" fill="#24292F"/><g transform="translate(68.0,346.0) scale(1.0)" fill="none" stroke="#FFFFFF" stroke-width="1.8" stroke-linecap="round" stroke-linejoin="round"><circle cx="12" cy="12" r="8.5"/><path d="M10 8.5l5.5 3.5-5.5 3.5z"/></g>
<text x="112" y="355.0" font-family="-apple-system, BlinkMacSystemFont, 'Segoe UI', Helvetica, Arial, sans-serif" font-size="15" font-weight="600" fill="#E6EDF3" text-anchor="start">Triggers</text>
<text x="112" y="374.0" font-family="-apple-system, BlinkMacSystemFont, 'Segoe UI', Helvetica, Arial, sans-serif" font-size="12.5" font-weight="400" fill="#9AA7B4" text-anchor="start">merge, manual, weekly</text>
<rect x="400" y="326" width="326" height="64" rx="10" fill="#161B22" stroke="#30363D" stroke-width="1.2"/>
<rect x="412" y="338.0" width="40" height="40" rx="8.0" fill="#DD344C"/><g transform="translate(420.0,346.0) scale(1.0)" fill="none" stroke="#FFFFFF" stroke-width="1.8" stroke-linecap="round" stroke-linejoin="round"><path d="M12 3l7 3v6c0 4-3 7-7 9-4-2-7-5-7-9V6z"/><path d="M9 12l2 2 4-4"/></g>
<text x="464" y="355.0" font-family="-apple-system, BlinkMacSystemFont, 'Segoe UI', Helvetica, Arial, sans-serif" font-size="15" font-weight="600" fill="#E6EDF3" text-anchor="start">Fails closed</text>
<text x="464" y="374.0" font-family="-apple-system, BlinkMacSystemFont, 'Segoe UI', Helvetica, Arial, sans-serif" font-size="12.5" font-weight="400" fill="#9AA7B4" text-anchor="start">no AMI if a test fails</text>
<rect x="752" y="326" width="326" height="64" rx="10" fill="#161B22" stroke="#30363D" stroke-width="1.2"/>
<rect x="764" y="338.0" width="40" height="40" rx="8.0" fill="#ED7100"/><g transform="translate(772.0,346.0) scale(1.0)" fill="none" stroke="#FFFFFF" stroke-width="1.8" stroke-linecap="round" stroke-linejoin="round"><path d="M12 4l8.5 4-8.5 4-8.5-4z"/><path d="M3.5 12l8.5 4 8.5-4"/><path d="M3.5 16l8.5 4 8.5-4"/></g>
<text x="816" y="355.0" font-family="-apple-system, BlinkMacSystemFont, 'Segoe UI', Helvetica, Arial, sans-serif" font-size="15" font-weight="600" fill="#E6EDF3" text-anchor="start">Lifecycle</text>
<text x="816" y="374.0" font-family="-apple-system, BlinkMacSystemFont, 'Segoe UI', Helvetica, Arial, sans-serif" font-size="12.5" font-weight="400" fill="#9AA7B4" text-anchor="start">keeps the newest 5</text>
<rect x="1104" y="326" width="326" height="64" rx="10" fill="#161B22" stroke="#30363D" stroke-width="1.2"/>
<rect x="1116" y="338.0" width="40" height="40" rx="8.0" fill="#DD344C"/><g transform="translate(1124.0,346.0) scale(1.0)" fill="none" stroke="#FFFFFF" stroke-width="1.8" stroke-linecap="round" stroke-linejoin="round"><rect x="5" y="11" width="14" height="10" rx="2"/><path d="M8 11V8a4 4 0 0 1 8 0v3"/></g>
<text x="1168" y="355.0" font-family="-apple-system, BlinkMacSystemFont, 'Segoe UI', Helvetica, Arial, sans-serif" font-size="15" font-weight="600" fill="#E6EDF3" text-anchor="start">Hardened build</text>
<text x="1168" y="374.0" font-family="-apple-system, BlinkMacSystemFont, 'Segoe UI', Helvetica, Arial, sans-serif" font-size="12.5" font-weight="400" fill="#9AA7B4" text-anchor="start">IMDSv2, private, encrypted</text></svg>
